<svg width="72" height="72" viewBox="0 0 72 72" fill="none" xmlns="http://www.w3.org/2000/svg">
<g id="Group 18">
<g id="Group 10280">
<path id="Vector" d="M67.8086 44.7052L69.8113 42.703C71.0717 41.4421 71.0717 39.3907 69.8113 38.1298C69.2004 37.5194 68.3886 37.1829 67.5245 37.1829C66.8762 37.1829 66.2566 37.3725 65.7301 37.7256L65.3082 36.3092L67.4759 34.141C68.7368 32.88 68.7368 30.8287 67.4759 29.5683C66.3154 28.4073 64.4857 28.3181 63.2184 29.2949L60.6496 20.6709C61.6755 19.6829 62.6582 18.7216 63.5842 17.7956C66.2529 15.1263 68.4228 12.3017 69.6944 9.84077C71.8429 5.68152 70.9435 3.45824 69.8108 2.3255C68.6786 1.19276 66.4553 0.293943 62.2955 2.44246C59.8351 3.71352 57.01 5.8834 54.3413 8.55262C53.4152 9.47868 52.4534 10.4608 51.4659 11.4867L42.8414 8.91792C43.8182 7.65113 43.729 5.82145 42.5685 4.6604C41.3076 3.40003 39.2563 3.39949 37.9959 4.6604L35.8276 6.82868L34.4108 6.40677C34.7638 5.87966 34.9534 5.26015 34.9534 4.6118C34.9534 3.74823 34.6169 2.93593 34.0065 2.3255C32.7461 1.06459 30.6942 1.06459 29.4339 2.3255L27.4317 4.32768L17.2264 1.28782C16.8627 1.17995 16.4696 1.27928 16.202 1.54738L13.575 4.17441C13.1339 4.61501 13.1921 5.36856 13.6952 5.73653L39.4443 24.584C33.6385 31.1299 28.0458 37.6839 24.0976 42.3665L16.5235 39.4532C16.1428 39.3069 15.7118 39.3982 15.4234 39.6866L12.3098 42.8002C11.9071 43.2034 11.9071 43.8565 12.3098 44.2592L27.8771 59.8265C28.2744 60.2244 28.9388 60.2244 29.3367 59.8265L32.4497 56.7135C32.7381 56.4251 32.8299 55.9935 32.6831 55.6128L29.7703 48.0393C34.4529 44.091 41.0064 38.4983 47.5529 32.6921L49.5983 35.4873C49.9615 35.9835 50.6979 36.0475 51.1433 35.6246C51.5145 35.2721 51.5658 34.6809 51.264 34.2686L49.1016 31.3142C52.5249 28.2588 55.9055 25.1763 58.9726 22.2715L68.6952 54.9105L67.3541 56.251L53.9915 37.9947C53.655 37.5349 53.0093 37.435 52.5495 37.7715C52.0892 38.1085 51.9893 38.7542 52.3263 39.214L66.4003 58.4417C66.7683 58.9448 67.5218 59.003 67.9624 58.5618L70.5895 55.9348C70.8576 55.6672 70.9569 55.2736 70.849 54.9105L67.8086 44.7052ZM39.4555 6.11998C39.9062 5.66924 40.6587 5.66924 41.1094 6.11998C41.5655 6.57607 41.5655 7.31788 41.1094 7.77396L40.6256 8.25782L38.0765 7.49839L39.4555 6.11998ZM30.8934 3.78508C31.349 3.329 32.0913 3.329 32.5474 3.78508C33.0035 4.24117 33.0035 4.98297 32.5474 5.43906L32.2291 5.75682L29.6806 4.99793L30.8934 3.78508ZM15.8853 4.78217L17.2264 3.44168L49.8653 13.1637C46.9606 16.2313 43.878 19.6119 40.8221 23.0352L15.8853 4.78217ZM16.4087 41.6204L22.6919 44.0371C21.1159 45.9137 19.9073 47.3658 19.1944 48.2251L14.4989 43.5297L16.4087 41.6204ZM20.6604 49.6911C24.2578 45.3508 43.2729 22.5396 55.8009 10.0117C58.2864 7.52563 60.9994 5.43532 63.243 4.27641C64.9274 3.4059 67.1811 2.61443 68.3518 3.78508C69.5224 4.95574 68.7304 7.20946 67.8604 8.89388C66.7015 11.1375 64.6107 13.8499 62.1246 16.336C49.5978 28.8629 26.786 47.8785 22.4457 51.4765L20.6604 49.6911ZM30.5164 55.7281L28.6071 57.6374L23.9117 52.9419C24.7705 52.2295 26.2231 51.0209 28.0998 49.4449L30.5164 55.7281ZM66.6978 39.5894C67.1539 39.1333 67.8957 39.1333 68.3518 39.5894C68.8078 40.0455 68.8078 40.7873 68.3518 41.2434L67.1389 42.4562L66.3795 39.9077L66.6978 39.5894ZM64.3629 31.0274C64.8184 30.5713 65.5608 30.5718 66.0169 31.0274C66.4676 31.4781 66.4676 32.2306 66.0169 32.6814L64.6379 34.0603L63.8785 31.5112L64.3629 31.0274Z" fill="#454545" stroke="#454545"/>
<path id="Vector_2" d="M62.9451 60.5689L54.139 69.3749C53.7636 69.7509 53.7385 70.3715 54.084 70.7752C54.4702 71.226 55.1788 71.2543 55.5986 70.8345L64.4047 62.0284C64.8079 61.6252 64.8079 60.9721 64.4047 60.5689C64.002 60.1662 63.3483 60.1662 62.9451 60.5689Z" fill="#454545" stroke="#454545"/>
<path id="Vector_3" d="M60.001 57.625C60.4042 57.2223 60.4042 56.5686 60.001 56.1659C59.5983 55.7627 58.9447 55.7627 58.542 56.1659L53.038 61.6694C52.6625 62.0454 52.6374 62.666 52.983 63.0697C53.3691 63.5205 54.0778 63.5488 54.4975 63.129L60.001 57.625Z" fill="#454545" stroke="#454545"/>
<path id="Vector_4" d="M56.6993 52.1216C57.1025 51.7184 57.1025 51.0647 56.6993 50.662C56.2961 50.2588 55.6429 50.2588 55.2397 50.662L51.387 54.5147C51.0116 54.8902 50.9865 55.5113 51.3325 55.915C51.7181 56.3658 52.4268 56.3941 52.8466 55.9743L56.6993 52.1216Z" fill="#454545" stroke="#454545"/>
<path id="Vector_5" d="M11.5681 8.28236C11.1649 7.87968 10.5112 7.87968 10.1085 8.28236L1.30241 17.089C0.899196 17.4917 0.899196 18.1454 1.30241 18.548C1.69975 18.9454 2.36412 18.9454 2.76199 18.548L11.5681 9.74194C11.9708 9.33872 11.9708 8.68557 11.5681 8.28236Z" fill="#454545" stroke="#454545"/>
<path id="Vector_6" d="M15.9709 12.6857C15.5677 12.2825 14.9146 12.2825 14.5119 12.6857L9.00788 18.1897C8.6319 18.5652 8.60733 19.1857 8.95287 19.5895C9.33899 20.0402 10.0472 20.0685 10.4669 19.6488L15.9709 14.1453C16.3741 13.7421 16.3741 13.0884 15.9709 12.6857Z" fill="#454545" stroke="#454545"/>
<path id="Vector_7" d="M16.1624 21.3001C16.5602 21.6974 17.2241 21.6974 17.6219 21.3001L21.4746 17.4474C21.8773 17.0442 21.8773 16.391 21.4746 15.9878C21.0714 15.5851 20.4183 15.5851 20.0151 15.9878L16.1624 19.8405C15.7597 20.2437 15.7597 20.8969 16.1624 21.3001Z" fill="#454545" stroke="#454545"/>
</g>
</g>
</svg>
