<svg width="25" height="16" viewBox="0 0 25 16" fill="none" xmlns="http://www.w3.org/2000/svg">
<g id="Group 1">
<path id="Vector" d="M22.5919 6.10352e-05H1.82894C0.818815 6.10352e-05 0 0.818876 0 1.829V14.171C0 15.1811 0.818815 16 1.82894 16H22.5919C23.602 16 24.4209 15.1812 24.4209 14.171V1.829C24.4209 0.818876 23.6021 6.10352e-05 22.5919 6.10352e-05Z" fill="#F5F5F5"/>
<g id="Group">
<path id="Vector_2" d="M0.100586 1.23084H24.3202C24.0724 0.514569 23.3924 6.10352e-05 22.5919 6.10352e-05H1.82894C1.02839 6.10352e-05 0.348467 0.514569 0.100586 1.23084Z" fill="#FF4B55"/>
<path id="Vector_3" d="M24.4209 4.9231H0V6.15382H24.4209V4.9231Z" fill="#FF4B55"/>
<path id="Vector_4" d="M24.4209 2.46136H0V3.69209H24.4209V2.46136Z" fill="#FF4B55"/>
<path id="Vector_5" d="M0 8.19429C0 8.42681 0.188546 8.61536 0.421069 8.61536H24.4209V7.38458H0V8.19429Z" fill="#FF4B55"/>
<path id="Vector_6" d="M24.4209 12.308H0V13.5388H24.4209V12.308Z" fill="#FF4B55"/>
<path id="Vector_7" d="M24.3203 14.7693H0.100586C0.348467 15.4856 1.02844 16.0001 1.82894 16.0001H22.5919C23.3925 16.0001 24.0724 15.4856 24.3203 14.7693Z" fill="#FF4B55"/>
<path id="Vector_8" d="M24.4209 9.84644H0V11.0772H24.4209V9.84644Z" fill="#FF4B55"/>
</g>
<path id="Vector_9" d="M0.421069 8.61537H10.9473C11.1799 8.61537 11.3684 8.42683 11.3684 8.1943V0.421069C11.3684 0.188498 11.1799 0 10.9473 0H1.82894C0.818815 4.7697e-05 0 0.818863 0 1.82899V8.1943C0 8.42687 0.188546 8.61537 0.421069 8.61537Z" fill="#41479B"/>
<g id="Group_2">
<path id="Vector_10" d="M1.18224 0.966599L1.27544 1.2461L1.57006 1.24835C1.60822 1.24868 1.62401 1.29733 1.59334 1.31999L1.35633 1.49499L1.44524 1.77587C1.45678 1.81222 1.41534 1.84236 1.38428 1.82014L1.14461 1.64886L0.90493 1.82018C0.873879 1.84241 0.832526 1.81227 0.843973 1.77592L0.93288 1.49503L0.695874 1.32003C0.665205 1.29733 0.680992 1.24868 0.71915 1.24839L1.01377 1.24615L1.10697 0.966646C1.11899 0.930397 1.17013 0.930397 1.18224 0.966599Z" fill="#F5F5F5"/>
<path id="Vector_11" d="M1.18224 2.4286L1.27544 2.7081L1.57006 2.71035C1.60822 2.71068 1.62401 2.75928 1.59334 2.78199L1.35633 2.95703L1.44524 3.23792C1.45678 3.27427 1.41534 3.30441 1.38428 3.28218L1.14461 3.1109L0.90493 3.28223C0.873879 3.30441 0.832526 3.27431 0.843973 3.23797L0.93288 2.95708L0.695874 2.78203C0.665205 2.75933 0.680992 2.71073 0.71915 2.71039L1.01377 2.70815L1.10697 2.42865C1.11899 2.39244 1.17013 2.39244 1.18224 2.4286Z" fill="#F5F5F5"/>
<path id="Vector_12" d="M1.18224 3.89073L1.27544 4.17024L1.57006 4.17248C1.60822 4.17281 1.62401 4.22142 1.59334 4.24412L1.35633 4.41917L1.44524 4.70005C1.45678 4.7364 1.41534 4.76654 1.38428 4.74432L1.14461 4.57304L0.90493 4.74437C0.873879 4.76654 0.832526 4.7365 0.843973 4.7001L0.93288 4.41921L0.695874 4.24417C0.665205 4.22146 0.680992 4.17286 0.71915 4.17253L1.01377 4.17028L1.10697 3.89078C1.11899 3.85453 1.17013 3.85453 1.18224 3.89073Z" fill="#F5F5F5"/>
<path id="Vector_13" d="M1.18224 5.35283L1.27544 5.63233L1.57006 5.63457C1.60822 5.63491 1.62401 5.68356 1.59334 5.70622L1.35633 5.88126L1.44524 6.16215C1.45678 6.1985 1.41534 6.22864 1.38428 6.20641L1.14461 6.03513L0.90493 6.20646C0.873879 6.22864 0.832526 6.19854 0.843973 6.1622L0.93288 5.88131L0.695874 5.70626C0.665205 5.68366 0.680992 5.63496 0.71915 5.63462L1.01377 5.63238L1.10697 5.35288C1.11899 5.31663 1.17013 5.31663 1.18224 5.35283Z" fill="#F5F5F5"/>
<path id="Vector_14" d="M1.18224 6.81495L1.27544 7.09446L1.57006 7.0967C1.60822 7.09703 1.62401 7.14564 1.59334 7.16834L1.35633 7.34339L1.44524 7.62427C1.45678 7.66062 1.41534 7.69076 1.38428 7.66854L1.14461 7.49726L0.90493 7.66859C0.873879 7.69076 0.832526 7.66067 0.843973 7.62432L0.93288 7.34343L0.695874 7.16839C0.665205 7.14568 0.680992 7.09708 0.71915 7.09675L1.01377 7.0945L1.10697 6.815C1.11899 6.7788 1.17013 6.7788 1.18224 6.81495Z" fill="#F5F5F5"/>
<path id="Vector_15" d="M2.31725 1.6833L2.41045 1.96281L2.70507 1.96505C2.74323 1.96539 2.75902 2.01404 2.72835 2.03669L2.49134 2.21174L2.58025 2.49263C2.59179 2.52897 2.55035 2.55912 2.51929 2.53689L2.27962 2.36556L2.03994 2.53689C2.00889 2.55907 1.96754 2.52897 1.97898 2.49263L2.06789 2.21174L1.83088 2.03669C1.80021 2.01399 1.816 1.96539 1.85416 1.96505L2.14878 1.96281L2.24198 1.6833C2.254 1.64715 2.30518 1.64715 2.31725 1.6833Z" fill="#F5F5F5"/>
<path id="Vector_16" d="M2.31725 3.1455L2.41045 3.425L2.70507 3.42725C2.74323 3.42758 2.75902 3.47623 2.72835 3.49889L2.49134 3.67393L2.58025 3.95482C2.59179 3.99117 2.55035 4.02131 2.51929 3.99909L2.27962 3.82776L2.03994 3.99909C2.00889 4.02126 1.96754 3.99122 1.97898 3.95482L2.06789 3.67393L1.83088 3.49889C1.80021 3.47628 1.816 3.42758 1.85416 3.42725L2.14878 3.425L2.24198 3.1455C2.254 3.1093 2.30518 3.1093 2.31725 3.1455Z" fill="#F5F5F5"/>
<path id="Vector_17" d="M2.31725 4.6076L2.41045 4.8871L2.70507 4.88934C2.74323 4.88968 2.75902 4.93828 2.72835 4.96098L2.49134 5.13603L2.58025 5.41692C2.59179 5.45327 2.55035 5.48341 2.51929 5.46118L2.27962 5.28985L2.03994 5.46118C2.00889 5.48336 1.96754 5.45327 1.97898 5.41692L2.06789 5.13603L1.83088 4.96098C1.80021 4.93828 1.816 4.88968 1.85416 4.88934L2.14878 4.8871L2.24198 4.6076C2.254 4.57139 2.30518 4.57139 2.31725 4.6076Z" fill="#F5F5F5"/>
<path id="Vector_18" d="M2.31725 6.06966L2.41045 6.34916L2.70507 6.3514C2.74323 6.35174 2.75902 6.40034 2.72835 6.42304L2.49134 6.59809L2.58025 6.87898C2.59179 6.91532 2.55035 6.94547 2.51929 6.92324L2.27962 6.75191L2.03994 6.92324C2.00889 6.94547 1.96754 6.91532 1.97898 6.87898L2.06789 6.59809L1.83088 6.42304C1.80021 6.40034 1.816 6.35174 1.85416 6.3514L2.14878 6.34916L2.24198 6.06966C2.254 6.0335 2.30518 6.0335 2.31725 6.06966Z" fill="#F5F5F5"/>
<path id="Vector_19" d="M3.45202 0.966483L3.54522 1.24599L3.83984 1.24823C3.878 1.24856 3.89378 1.29721 3.86312 1.31987L3.62611 1.49487L3.71502 1.77576C3.72656 1.8121 3.68511 1.84225 3.65406 1.82002L3.41438 1.64869L3.1747 1.82002C3.14365 1.84225 3.1023 1.8121 3.11375 1.77576L3.20266 1.49487L2.96565 1.31987C2.93498 1.29717 2.95077 1.24852 2.98893 1.24823L3.28355 1.24599L3.37675 0.966483C3.38877 0.930281 3.43995 0.930281 3.45202 0.966483Z" fill="#F5F5F5"/>
<path id="Vector_20" d="M3.45202 2.42861L3.54522 2.70811L3.83984 2.71035C3.878 2.71069 3.89378 2.75929 3.86312 2.78199L3.62611 2.95704L3.71502 3.23793C3.72656 3.27428 3.68511 3.30442 3.65406 3.28219L3.41438 3.11086L3.1747 3.28219C3.14365 3.30437 3.1023 3.27428 3.11375 3.23793L3.20266 2.95704L2.96565 2.78199C2.93498 2.75929 2.95077 2.71069 2.98893 2.71035L3.28355 2.70811L3.37675 2.42861C3.38877 2.39245 3.43995 2.39245 3.45202 2.42861Z" fill="#F5F5F5"/>
<path id="Vector_21" d="M3.45202 3.89074L3.54522 4.17024L3.83984 4.17249C3.878 4.17282 3.89378 4.22142 3.86312 4.24413L3.62611 4.41917L3.71502 4.70006C3.72656 4.73641 3.68511 4.76655 3.65406 4.74432L3.41438 4.573L3.1747 4.74432C3.14365 4.7665 3.1023 4.73645 3.11375 4.70006L3.20266 4.41917L2.96565 4.24413C2.93498 4.22142 2.95077 4.17282 2.98893 4.17249L3.28355 4.17024L3.37675 3.89074C3.38877 3.85454 3.43995 3.85454 3.45202 3.89074Z" fill="#F5F5F5"/>
<path id="Vector_22" d="M3.45202 5.3529L3.54522 5.6324L3.83984 5.63464C3.878 5.63498 3.89378 5.68363 3.86312 5.70628L3.62611 5.88133L3.71502 6.16222C3.72656 6.19857 3.68511 6.22871 3.65406 6.20648L3.41438 6.03516L3.1747 6.20648C3.14365 6.22866 3.1023 6.19857 3.11375 6.16222L3.20266 5.88133L2.96565 5.70628C2.93498 5.68368 2.95077 5.63498 2.98893 5.63464L3.28355 5.6324L3.37675 5.3529C3.38877 5.31669 3.43995 5.31669 3.45202 5.3529Z" fill="#F5F5F5"/>
<path id="Vector_23" d="M3.45202 6.81496L3.54522 7.09446L3.83984 7.0967C3.878 7.09704 3.89378 7.14564 3.86312 7.16834L3.62611 7.34339L3.71502 7.62428C3.72656 7.66063 3.68511 7.69077 3.65406 7.66854L3.41438 7.49722L3.1747 7.66854C3.14365 7.69072 3.1023 7.66063 3.11375 7.62428L3.20266 7.34339L2.96565 7.16834C2.93498 7.14564 2.95077 7.09704 2.98893 7.0967L3.28355 7.09446L3.37675 6.81496C3.38877 6.7788 3.43995 6.7788 3.45202 6.81496Z" fill="#F5F5F5"/>
<path id="Vector_24" d="M4.58703 1.6833L4.68023 1.96281L4.97485 1.96505C5.01301 1.96539 5.0288 2.01404 4.99813 2.03669L4.76112 2.21174L4.85003 2.49263C4.86157 2.52897 4.82012 2.55912 4.78907 2.53689L4.54939 2.36556L4.30972 2.53689C4.27866 2.55907 4.23731 2.52897 4.24876 2.49263L4.33767 2.21174L4.10066 2.03669C4.06999 2.01399 4.08578 1.96539 4.12394 1.96505L4.41856 1.96281L4.51176 1.6833C4.52373 1.64715 4.57496 1.64715 4.58703 1.6833Z" fill="#F5F5F5"/>
<path id="Vector_25" d="M4.58703 3.1455L4.68023 3.425L4.97485 3.42725C5.01301 3.42758 5.0288 3.47623 4.99813 3.49889L4.76112 3.67393L4.85003 3.95482C4.86157 3.99117 4.82012 4.02131 4.78907 3.99909L4.54939 3.82776L4.30972 3.99909C4.27866 4.02126 4.23731 3.99122 4.24876 3.95482L4.33767 3.67393L4.10066 3.49889C4.06999 3.47628 4.08578 3.42758 4.12394 3.42725L4.41856 3.425L4.51176 3.1455C4.52373 3.1093 4.57496 3.1093 4.58703 3.1455Z" fill="#F5F5F5"/>
<path id="Vector_26" d="M4.58703 4.6076L4.68023 4.8871L4.97485 4.88934C5.01301 4.88968 5.0288 4.93828 4.99813 4.96098L4.76112 5.13603L4.85003 5.41692C4.86157 5.45327 4.82012 5.48341 4.78907 5.46118L4.54939 5.28985L4.30972 5.46118C4.27866 5.48336 4.23731 5.45327 4.24876 5.41692L4.33767 5.13603L4.10066 4.96098C4.06999 4.93828 4.08578 4.88968 4.12394 4.88934L4.41856 4.8871L4.51176 4.6076C4.52373 4.57139 4.57496 4.57139 4.58703 4.6076Z" fill="#F5F5F5"/>
<path id="Vector_27" d="M4.58703 6.06966L4.68023 6.34916L4.97485 6.3514C5.01301 6.35174 5.0288 6.40034 4.99813 6.42304L4.76112 6.59809L4.85003 6.87898C4.86157 6.91532 4.82012 6.94547 4.78907 6.92324L4.54939 6.75191L4.30972 6.92324C4.27866 6.94547 4.23731 6.91532 4.24876 6.87898L4.33767 6.59809L4.10066 6.42304C4.06999 6.40034 4.08578 6.35174 4.12394 6.3514L4.41856 6.34916L4.51176 6.06966C4.52373 6.0335 4.57496 6.0335 4.58703 6.06966Z" fill="#F5F5F5"/>
<path id="Vector_28" d="M5.72184 0.966477L5.81504 1.24598L6.10967 1.24822C6.14782 1.24856 6.16361 1.29721 6.13294 1.31986L5.89593 1.49486L5.98484 1.77575C5.99639 1.8121 5.95494 1.84224 5.92389 1.82002L5.68416 1.64874L5.44448 1.82006C5.41343 1.84229 5.37208 1.81215 5.38352 1.7758L5.47243 1.49491L5.23542 1.31991C5.20476 1.29721 5.22054 1.24856 5.2587 1.24827L5.55333 1.24603L5.64653 0.966524C5.65859 0.930275 5.70977 0.930275 5.72184 0.966477Z" fill="#F5F5F5"/>
<path id="Vector_29" d="M5.72184 2.42861L5.81504 2.70811L6.10967 2.71035C6.14782 2.71069 6.16361 2.75929 6.13294 2.78199L5.89593 2.95704L5.98484 3.23793C5.99639 3.27428 5.95494 3.30442 5.92389 3.28219L5.68416 3.11086L5.44448 3.28219C5.41343 3.30437 5.37208 3.27428 5.38352 3.23793L5.47243 2.95704L5.23542 2.78199C5.20476 2.75929 5.22054 2.71069 5.2587 2.71035L5.55333 2.70811L5.64653 2.42861C5.65859 2.39245 5.70977 2.39245 5.72184 2.42861Z" fill="#F5F5F5"/>
<path id="Vector_30" d="M5.72184 3.89074L5.81504 4.17025L6.10967 4.17249C6.14782 4.17282 6.16361 4.22143 6.13294 4.24413L5.89593 4.41918L5.98484 4.70007C5.99639 4.73641 5.95494 4.76656 5.92389 4.74433L5.68416 4.57295L5.44448 4.74428C5.41343 4.76646 5.37208 4.73636 5.38352 4.70002L5.47243 4.41913L5.23542 4.24408C5.20476 4.22138 5.22054 4.17278 5.2587 4.17244L5.55333 4.1702L5.64653 3.8907C5.65859 3.85454 5.70977 3.85454 5.72184 3.89074Z" fill="#F5F5F5"/>
<path id="Vector_31" d="M5.72184 5.3529L5.81504 5.6324L6.10967 5.63464C6.14782 5.63498 6.16361 5.68363 6.13294 5.70628L5.89593 5.88133L5.98484 6.16222C5.99639 6.19857 5.95494 6.22871 5.92389 6.20648L5.68416 6.03516L5.44448 6.20648C5.41343 6.22866 5.37208 6.19857 5.38352 6.16222L5.47243 5.88133L5.23542 5.70628C5.20476 5.68368 5.22054 5.63498 5.2587 5.63464L5.55333 5.6324L5.64653 5.3529C5.65859 5.31669 5.70977 5.31669 5.72184 5.3529Z" fill="#F5F5F5"/>
<path id="Vector_32" d="M5.72184 6.81496L5.81504 7.09446L6.10967 7.0967C6.14782 7.09704 6.16361 7.14564 6.13294 7.16834L5.89593 7.34339L5.98484 7.62428C5.99639 7.66063 5.95494 7.69077 5.92389 7.66854L5.68416 7.49722L5.44448 7.66854C5.41343 7.69072 5.37208 7.66063 5.38352 7.62428L5.47243 7.34339L5.23542 7.16834C5.20476 7.14564 5.22054 7.09704 5.2587 7.0967L5.55333 7.09446L5.64653 6.81496C5.65859 6.7788 5.70977 6.7788 5.72184 6.81496Z" fill="#F5F5F5"/>
<path id="Vector_33" d="M6.8568 1.6833L6.95 1.96281L7.24462 1.96505C7.28278 1.96539 7.29857 2.01404 7.2679 2.03669L7.03089 2.21174L7.1198 2.49263C7.13134 2.52897 7.08989 2.55912 7.05884 2.53689L6.81917 2.36556L6.57949 2.53689C6.54844 2.55907 6.50709 2.52897 6.51853 2.49263L6.60744 2.21174L6.37043 2.03669C6.33977 2.01399 6.35555 1.96539 6.39371 1.96505L6.68833 1.96281L6.78153 1.6833C6.7936 1.64715 6.84473 1.64715 6.8568 1.6833Z" fill="#F5F5F5"/>
<path id="Vector_34" d="M6.8568 3.1455L6.95 3.425L7.24462 3.42725C7.28278 3.42758 7.29857 3.47623 7.2679 3.49889L7.03089 3.67393L7.1198 3.95482C7.13134 3.99117 7.08989 4.02131 7.05884 3.99909L6.81917 3.82776L6.57949 3.99909C6.54844 4.02126 6.50709 3.99122 6.51853 3.95482L6.60744 3.67393L6.37043 3.49889C6.33977 3.47628 6.35555 3.42758 6.39371 3.42725L6.68833 3.425L6.78153 3.1455C6.7936 3.1093 6.84473 3.1093 6.8568 3.1455Z" fill="#F5F5F5"/>
<path id="Vector_35" d="M6.8568 4.6076L6.95 4.8871L7.24462 4.88934C7.28278 4.88968 7.29857 4.93828 7.2679 4.96098L7.03089 5.13603L7.1198 5.41692C7.13134 5.45327 7.08989 5.48341 7.05884 5.46118L6.81917 5.28985L6.57949 5.46118C6.54844 5.48336 6.50709 5.45327 6.51853 5.41692L6.60744 5.13603L6.37043 4.96098C6.33977 4.93828 6.35555 4.88968 6.39371 4.88934L6.68833 4.8871L6.78153 4.6076C6.7936 4.57139 6.84473 4.57139 6.8568 4.6076Z" fill="#F5F5F5"/>
<path id="Vector_36" d="M6.8568 6.06966L6.95 6.34916L7.24462 6.3514C7.28278 6.35174 7.29857 6.40034 7.2679 6.42304L7.03089 6.59809L7.1198 6.87898C7.13134 6.91532 7.08989 6.94547 7.05884 6.92324L6.81917 6.75191L6.57949 6.92324C6.54844 6.94547 6.50709 6.91532 6.51853 6.87898L6.60744 6.59809L6.37043 6.42304C6.33977 6.40034 6.35555 6.35174 6.39371 6.3514L6.68833 6.34916L6.78153 6.06966C6.7936 6.0335 6.84473 6.0335 6.8568 6.06966Z" fill="#F5F5F5"/>
<path id="Vector_37" d="M7.99157 0.966483L8.08477 1.24599L8.37939 1.24823C8.41755 1.24856 8.43333 1.29721 8.40267 1.31987L8.16566 1.49487L8.25457 1.77576C8.26611 1.8121 8.22466 1.84225 8.19361 1.82002L7.95393 1.64869L7.71426 1.82002C7.6832 1.84225 7.64185 1.8121 7.6533 1.77576L7.74221 1.49487L7.5052 1.31987C7.47453 1.29717 7.49032 1.24852 7.52848 1.24823L7.8231 1.24599L7.9163 0.966483C7.92827 0.930281 7.9795 0.930281 7.99157 0.966483Z" fill="#F5F5F5"/>
<path id="Vector_38" d="M7.99157 2.42861L8.08477 2.70811L8.37939 2.71035C8.41755 2.71069 8.43333 2.75929 8.40267 2.78199L8.16566 2.95704L8.25457 3.23793C8.26611 3.27428 8.22466 3.30442 8.19361 3.28219L7.95393 3.11086L7.71426 3.28219C7.6832 3.30437 7.64185 3.27428 7.6533 3.23793L7.74221 2.95704L7.5052 2.78199C7.47453 2.75929 7.49032 2.71069 7.52848 2.71035L7.8231 2.70811L7.9163 2.42861C7.92827 2.39245 7.9795 2.39245 7.99157 2.42861Z" fill="#F5F5F5"/>
<path id="Vector_39" d="M7.99157 3.89074L8.08477 4.17024L8.37939 4.17249C8.41755 4.17282 8.43333 4.22142 8.40267 4.24413L8.16566 4.41917L8.25457 4.70006C8.26611 4.73641 8.22466 4.76655 8.19361 4.74432L7.95393 4.573L7.71426 4.74432C7.6832 4.7665 7.64185 4.73645 7.6533 4.70006L7.74221 4.41917L7.5052 4.24413C7.47453 4.22142 7.49032 4.17282 7.52848 4.17249L7.8231 4.17024L7.9163 3.89074C7.92827 3.85454 7.9795 3.85454 7.99157 3.89074Z" fill="#F5F5F5"/>
<path id="Vector_40" d="M7.99157 5.3529L8.08477 5.6324L8.37939 5.63464C8.41755 5.63498 8.43333 5.68363 8.40267 5.70628L8.16566 5.88133L8.25457 6.16222C8.26611 6.19857 8.22466 6.22871 8.19361 6.20648L7.95393 6.03516L7.71426 6.20648C7.6832 6.22866 7.64185 6.19857 7.6533 6.16222L7.74221 5.88133L7.5052 5.70628C7.47453 5.68368 7.49032 5.63498 7.52848 5.63464L7.8231 5.6324L7.9163 5.3529C7.92827 5.31669 7.9795 5.31669 7.99157 5.3529Z" fill="#F5F5F5"/>
<path id="Vector_41" d="M7.99157 6.81496L8.08477 7.09446L8.37939 7.0967C8.41755 7.09704 8.43333 7.14564 8.40267 7.16834L8.16566 7.34339L8.25457 7.62428C8.26611 7.66063 8.22466 7.69077 8.19361 7.66854L7.95393 7.49722L7.71426 7.66854C7.6832 7.69072 7.64185 7.66063 7.6533 7.62428L7.74221 7.34339L7.5052 7.16834C7.47453 7.14564 7.49032 7.09704 7.52848 7.0967L7.8231 7.09446L7.9163 6.81496C7.92827 6.7788 7.9795 6.7788 7.99157 6.81496Z" fill="#F5F5F5"/>
<path id="Vector_42" d="M9.12658 1.6833L9.21978 1.96281L9.5144 1.96505C9.55256 1.96539 9.56835 2.01404 9.53768 2.03669L9.30067 2.21174L9.38958 2.49263C9.40112 2.52897 9.35967 2.55912 9.32862 2.53689L9.08894 2.36556L8.84927 2.53689C8.81821 2.55907 8.77686 2.52897 8.78831 2.49263L8.87722 2.21174L8.64021 2.03669C8.60954 2.01399 8.62533 1.96539 8.66349 1.96505L8.95811 1.96281L9.05131 1.6833C9.06333 1.64715 9.11451 1.64715 9.12658 1.6833Z" fill="#F5F5F5"/>
<path id="Vector_43" d="M9.12658 3.1455L9.21978 3.425L9.5144 3.42725C9.55256 3.42758 9.56835 3.47623 9.53768 3.49889L9.30067 3.67393L9.38958 3.95482C9.40112 3.99117 9.35967 4.02131 9.32862 3.99909L9.08894 3.82776L8.84927 3.99909C8.81821 4.02126 8.77686 3.99122 8.78831 3.95482L8.87722 3.67393L8.64021 3.49889C8.60954 3.47628 8.62533 3.42758 8.66349 3.42725L8.95811 3.425L9.05131 3.1455C9.06333 3.1093 9.11451 3.1093 9.12658 3.1455Z" fill="#F5F5F5"/>
<path id="Vector_44" d="M9.12658 4.6076L9.21978 4.8871L9.5144 4.88934C9.55256 4.88968 9.56835 4.93828 9.53768 4.96098L9.30067 5.13603L9.38958 5.41692C9.40112 5.45327 9.35967 5.48341 9.32862 5.46118L9.08894 5.28985L8.84927 5.46118C8.81821 5.48336 8.77686 5.45327 8.78831 5.41692L8.87722 5.13603L8.64021 4.96098C8.60954 4.93828 8.62533 4.88968 8.66349 4.88934L8.95811 4.8871L9.05131 4.6076C9.06333 4.57139 9.11451 4.57139 9.12658 4.6076Z" fill="#F5F5F5"/>
<path id="Vector_45" d="M9.12658 6.06966L9.21978 6.34916L9.5144 6.3514C9.55256 6.35174 9.56835 6.40034 9.53768 6.42304L9.30067 6.59809L9.38958 6.87898C9.40112 6.91532 9.35967 6.94547 9.32862 6.92324L9.08894 6.75191L8.84927 6.92324C8.81821 6.94547 8.77686 6.91532 8.78831 6.87898L8.87722 6.59809L8.64021 6.42304C8.60954 6.40034 8.62533 6.35174 8.66349 6.3514L8.95811 6.34916L9.05131 6.06966C9.06333 6.0335 9.11451 6.0335 9.12658 6.06966Z" fill="#F5F5F5"/>
<path id="Vector_46" d="M10.2613 0.966483L10.3545 1.24599L10.6492 1.24823C10.6873 1.24856 10.7031 1.29721 10.6724 1.31987L10.4354 1.49487L10.5243 1.77576C10.5359 1.8121 10.4944 1.84225 10.4634 1.82002L10.2237 1.64869L9.98403 1.82002C9.95298 1.84225 9.91163 1.8121 9.92308 1.77576L10.012 1.49487L9.77498 1.31987C9.74431 1.29717 9.76009 1.24852 9.79825 1.24823L10.0929 1.24599L10.1861 0.966483C10.1981 0.930281 10.2492 0.930281 10.2613 0.966483Z" fill="#F5F5F5"/>
<path id="Vector_47" d="M10.2613 2.42861L10.3545 2.70811L10.6492 2.71035C10.6873 2.71069 10.7031 2.75929 10.6724 2.78199L10.4354 2.95704L10.5243 3.23793C10.5359 3.27428 10.4944 3.30442 10.4634 3.28219L10.2237 3.11086L9.98403 3.28219C9.95298 3.30437 9.91163 3.27428 9.92308 3.23793L10.012 2.95704L9.77498 2.78199C9.74431 2.75929 9.76009 2.71069 9.79825 2.71035L10.0929 2.70811L10.1861 2.42861C10.1981 2.39245 10.2492 2.39245 10.2613 2.42861Z" fill="#F5F5F5"/>
<path id="Vector_48" d="M10.2613 3.89074L10.3545 4.17024L10.6492 4.17249C10.6873 4.17282 10.7031 4.22142 10.6724 4.24413L10.4354 4.41917L10.5243 4.70006C10.5359 4.73641 10.4944 4.76655 10.4634 4.74432L10.2237 4.573L9.98403 4.74432C9.95298 4.7665 9.91163 4.73645 9.92308 4.70006L10.012 4.41917L9.77498 4.24413C9.74431 4.22142 9.76009 4.17282 9.79825 4.17249L10.0929 4.17024L10.1861 3.89074C10.1981 3.85454 10.2492 3.85454 10.2613 3.89074Z" fill="#F5F5F5"/>
<path id="Vector_49" d="M10.2613 5.3529L10.3545 5.6324L10.6492 5.63464C10.6873 5.63498 10.7031 5.68363 10.6724 5.70628L10.4354 5.88133L10.5243 6.16222C10.5359 6.19857 10.4944 6.22871 10.4634 6.20648L10.2237 6.03516L9.98403 6.20648C9.95298 6.22866 9.91163 6.19857 9.92308 6.16222L10.012 5.88133L9.77498 5.70628C9.74431 5.68368 9.76009 5.63498 9.79825 5.63464L10.0929 5.6324L10.1861 5.3529C10.1981 5.31669 10.2492 5.31669 10.2613 5.3529Z" fill="#F5F5F5"/>
<path id="Vector_50" d="M10.2613 6.81496L10.3545 7.09446L10.6492 7.0967C10.6873 7.09704 10.7031 7.14564 10.6724 7.16834L10.4354 7.34339L10.5243 7.62428C10.5359 7.66063 10.4944 7.69077 10.4634 7.66854L10.2237 7.49722L9.98403 7.66854C9.95298 7.69072 9.91163 7.66063 9.92308 7.62428L10.012 7.34339L9.77498 7.16834C9.74431 7.14564 9.76009 7.09704 9.79825 7.0967L10.0929 7.09446L10.1861 6.81496C10.1981 6.7788 10.2492 6.7788 10.2613 6.81496Z" fill="#F5F5F5"/>
</g>
</g>
</svg>
