<svg width="18" height="24" viewBox="0 0 18 24" fill="none" xmlns="http://www.w3.org/2000/svg">
<g id="Group">
<g id="Group_2">
<path id="Vector" d="M15.2523 6.64357H14.3686V5.3685C14.3685 2.40813 11.9602 0 8.99991 0C6.03966 0 3.63119 2.40847 3.63119 5.3685V6.64357H2.74748C1.31064 6.64357 0.141602 7.81261 0.141602 9.24944V21.3941C0.141602 22.8313 1.31064 24 2.74748 24H15.2522C16.6891 24 17.8581 22.8312 17.8581 21.3941V9.24944C17.8581 7.81261 16.6891 6.64357 15.2523 6.64357ZM5.33124 5.3685C5.33124 3.34569 6.97688 1.70005 8.99991 1.70005C11.0227 1.70005 12.6684 3.34569 12.6684 5.3685V6.64357H5.33124V5.3685ZM16.1582 21.3941C16.1582 21.894 15.7516 22.2999 15.2523 22.2999H2.74737C2.24787 22.2999 1.84154 21.8936 1.84154 21.3941V9.24944C1.84154 8.74994 2.24787 8.34361 2.74737 8.34361H3.63108V9.53567C3.35792 9.77363 3.18174 10.1202 3.18174 10.5112C3.18174 11.2289 3.76346 11.8109 4.48116 11.8109C5.19862 11.8109 5.78058 11.2289 5.78058 10.5112C5.78058 10.1205 5.60428 9.77397 5.33124 9.53567V8.34361H12.6684V9.53567C12.3952 9.77363 12.219 10.1202 12.219 10.5112C12.219 11.2289 12.8007 11.8109 13.5184 11.8109C14.2361 11.8109 14.8179 11.2289 14.8179 10.5112C14.8179 10.1205 14.6416 9.77363 14.3685 9.53567V8.34361H15.2522C15.7517 8.34361 16.1581 8.74994 16.1581 9.24944V21.3941H16.1582Z" fill="#454545"/>
</g>
</g>
</svg>
