<svg width="51" height="70" viewBox="0 0 51 70" fill="none" xmlns="http://www.w3.org/2000/svg">
<g id="Group">
<path id="Vector" d="M48.8824 20.6694H41.9206V16.4541C41.9206 7.38117 34.5394 0 25.4666 0C16.3938 0 9.01264 7.38117 9.01264 16.4541V20.6694H2.05078C0.918203 20.6694 0 21.5876 0 22.7202V67.9492C0 69.0818 0.918203 70 2.05078 70H48.8824C50.015 70 50.9332 69.0818 50.9332 67.9492V22.7202C50.9332 21.5875 50.015 20.6694 48.8824 20.6694ZM13.1142 16.4541C13.1142 9.64277 18.6554 4.10156 25.4666 4.10156C32.2778 4.10156 37.819 9.64277 37.819 16.4541V20.6694H33.9448V16.2118C33.9448 11.537 30.1416 7.73363 25.4666 7.73363C20.7918 7.73363 16.9884 11.5369 16.9884 16.2118V20.6694H13.1142V16.4541ZM29.8432 20.6694H21.09V16.2118C21.09 13.7986 23.0534 11.8352 25.4666 11.8352C27.8798 11.8352 29.8432 13.7985 29.8432 16.2118V20.6694ZM8.0109 48.1221H4.10156V42.5474H8.0109V48.1221ZM4.10156 52.2237H8.0109V57.7985H4.10156V52.2237ZM8.0109 38.4457H4.10156V32.871H8.0109V38.4457ZM46.8316 65.8984H4.10156V61.9001H10.0617C11.1943 61.9001 12.1125 60.9819 12.1125 59.8493V30.8202C12.1125 29.6877 11.1943 28.7695 10.0617 28.7695H4.10156V24.771H46.8316V65.8984Z" fill="#454545"/>
<path id="Vector_2" d="M28.5567 42.2832C26.6694 41.616 24.582 40.8101 23.4095 39.8904C23.0329 39.595 22.8692 38.9225 23.0021 38.2172C23.1383 37.4946 23.6238 36.62 24.5779 36.3327C26.5351 35.743 27.8776 36.5257 28.3642 36.8894C29.2712 37.5676 30.5564 37.3821 31.2348 36.4751C31.913 35.568 31.7275 34.283 30.8204 33.6047C30.3825 33.2773 29.282 32.5576 27.7044 32.2131V31.3389C27.7044 30.2063 26.7862 29.2881 25.6536 29.2881C24.521 29.2881 23.6028 30.2063 23.6028 31.3389V32.3473C23.5337 32.3664 23.4648 32.3845 23.3949 32.4055C21.1248 33.0894 19.4298 35.0252 18.9714 37.4577C18.5496 39.6957 19.2802 41.8644 20.878 43.1177C22.1993 44.1541 24.0278 45.0326 27.1895 46.1504C29.32 46.9035 29.2738 48.6286 29.1549 49.3354C28.9145 50.765 27.7121 52.3099 25.6398 52.3236C23.6186 52.3364 22.988 52.2369 21.4334 51.2201C20.4857 50.6 19.2146 50.8659 18.5946 51.8136C17.9745 52.7615 18.2403 54.0324 19.1881 54.6526C20.8618 55.7476 22.0942 56.1878 23.6027 56.3462V57.3276C23.6027 58.4602 24.5209 59.3784 25.6535 59.3784C26.7861 59.3784 27.7043 58.4602 27.7043 57.3276V56.1502C28.8564 55.837 29.9063 55.2603 30.8026 54.4368C32.064 53.2777 32.9153 51.7077 33.1998 50.0155C33.778 46.5765 31.9119 43.4691 28.5567 42.2832Z" fill="#454545"/>
</g>
</svg>
