<svg width="84" height="74" viewBox="0 0 84 74" fill="none" xmlns="http://www.w3.org/2000/svg">
<g id="Group 18">
<circle id="Ellipse 2" cx="61.5" cy="51.5" r="22.5" fill="#F6623E"/>
<g id="Group 10281">
<g id="Group">
<g id="Group_2">
<path id="Vector" d="M47.6305 26.2771C47.3764 26.0228 47.0236 25.8765 46.6641 25.8765C46.3045 25.8765 45.9518 26.0226 45.6975 26.2771C45.4432 26.5315 45.2969 26.8841 45.2969 27.2437C45.2969 27.6032 45.443 27.956 45.6975 28.2101C45.9518 28.4644 46.3045 28.6108 46.6641 28.6108C47.0236 28.6108 47.3764 28.4644 47.6305 28.2101C47.8848 27.956 48.0313 27.6032 48.0313 27.2437C48.0313 26.8841 47.885 26.5313 47.6305 26.2771Z" fill="#454545" stroke="#454545"/>
</g>
</g>
<g id="Group_3">
<g id="Group_4">
<path id="Vector_2" d="M43.4047 46.2794C41.4452 46.2794 39.8511 44.8894 39.8511 43.1808C39.8511 41.4722 41.4452 40.082 43.4047 40.082C45.3641 40.082 46.9581 41.4722 46.9581 43.1808C46.9581 43.9357 47.5704 44.548 48.3253 44.548C49.0803 44.548 49.6925 43.9357 49.6925 43.1808C49.6925 40.4001 47.5835 38.069 44.7719 37.4882V37.3511C44.7719 36.5961 44.1596 35.9839 43.4047 35.9839C42.6497 35.9839 42.0375 36.5961 42.0375 37.3511V37.4882C39.2257 38.069 37.1167 40.4001 37.1167 43.1808C37.1167 46.3971 39.9375 49.0138 43.4047 49.0138C45.3641 49.0138 46.9581 50.4039 46.9581 52.1125C46.9581 53.8211 45.3641 55.2112 43.4047 55.2112C41.4452 55.2112 39.8511 53.8212 39.8511 52.1126C39.8511 51.3577 39.2389 50.7454 38.4839 50.7454C37.7289 50.7454 37.1167 51.3577 37.1167 52.1126C37.1167 54.8934 39.2257 57.2243 42.0375 57.8051V58.1517C42.0375 58.9066 42.6497 59.5188 43.4047 59.5188C44.1596 59.5188 44.7719 58.9066 44.7719 58.1517V57.8049C47.5835 57.2242 49.6925 54.8932 49.6925 52.1125C49.6925 48.8962 46.8717 46.2794 43.4047 46.2794Z" fill="#454545" stroke="#454545"/>
</g>
</g>
<g id="Group_5">
<g id="Group_6">
<path id="Vector_3" d="M61.894 27.2736L53.8049 17.1603L57.8572 9.2056C58.7464 7.4601 58.4023 5.46141 56.9807 4.11391C55.559 2.76627 53.5447 2.52974 51.8491 3.51097C51.2844 3.83801 50.565 3.781 50.0607 3.37084C46.197 0.220695 40.5851 0.216456 36.7068 3.36947C36.2005 3.78113 35.4812 3.83801 34.9166 3.51084C33.2211 2.52961 31.2068 2.76613 29.7851 4.11391C28.3635 5.46141 28.0194 7.46024 28.9086 9.2056L32.9745 17.1867L28.263 23.0771C27.7915 23.6668 27.887 24.527 28.4767 24.9988C29.0665 25.4705 29.9266 25.3747 30.3984 24.7851L35.2555 18.7126H45.297V22.5494C45.297 23.3043 45.9092 23.9166 46.6642 23.9166C47.4191 23.9166 48.0313 23.3043 48.0313 22.5494V18.7126H50.1163V32.3703C50.1163 33.1253 50.7285 33.7375 51.4835 33.7375C52.2385 33.7375 52.8507 33.1253 52.8507 32.3703V20.3449L59.7584 28.9813C65.2444 35.8402 68.2658 44.4546 68.2658 53.2375C68.2658 61.5205 61.527 68.2592 53.244 68.2592H33.5565C28.6062 68.2592 24.0914 65.8974 21.2754 61.8904C26.2985 59.2392 29.5903 56.5487 31.5112 53.5508C33.6094 50.2761 33.8484 47.0336 33.9307 43.4383C33.931 43.4277 33.9311 43.4173 33.9311 43.407V32.0468C33.9311 31.5129 33.6203 31.0279 33.1353 30.8047L18.0368 23.8594C17.6743 23.6925 17.2568 23.6925 16.8943 23.8594L1.79584 30.8047C1.31076 31.0279 1 31.5129 1 32.0468V43.407C1 43.4173 1.00014 43.4277 1.00041 43.4383C1.08285 47.0336 1.32184 50.2761 3.41993 53.5508C5.72651 57.1506 10.0076 60.3073 16.8926 63.485C17.0743 63.5688 17.27 63.6107 17.4655 63.6107C17.661 63.6107 17.8566 63.5688 18.0383 63.485C18.2991 63.3647 18.5547 63.2443 18.8079 63.124C20.3209 65.3758 22.3392 67.2677 24.6915 68.6255C27.3753 70.1746 30.4408 70.9934 33.5564 70.9934H53.2439C63.0346 70.9934 71 63.0281 71 53.2373C71.0001 43.8363 67.7662 34.6152 61.894 27.2736ZM51.3386 15.9782H35.4275L31.3451 7.96446C30.8473 6.98733 31.465 6.28924 31.6662 6.09852C31.8675 5.90766 32.5985 5.32865 33.5466 5.87744C35.0875 6.76926 37.0503 6.61422 38.442 5.48274C41.3096 3.15195 45.469 3.15496 48.3343 5.49135C49.7157 6.61409 51.6786 6.7694 53.2191 5.87758C54.1678 5.32797 54.8985 5.90766 55.0997 6.09852C55.301 6.28924 55.9187 6.98733 55.421 7.96446L51.3386 15.9782ZM17.4656 60.7349C3.99838 54.3814 3.86932 49.2815 3.73438 43.3915V32.9229L17.4656 26.6065L31.1969 32.9229V43.3915C31.0618 49.2815 30.9329 54.3814 17.4656 60.7349Z" fill="#454545" stroke="#454545"/>
</g>
</g>
<g id="Group_7">
<g id="Group_8">
<path id="Vector_4" d="M26.1948 39.1193C25.6609 38.5856 24.7955 38.5856 24.2615 39.1193L16.5999 46.7809L13.3565 43.5375C12.8225 43.0038 11.957 43.0038 11.4229 43.5375C10.889 44.0714 10.889 44.9371 11.4229 45.4711L15.633 49.6813C15.9 49.9481 16.2499 50.0817 16.5997 50.0817C16.9496 50.0817 17.2995 49.9481 17.5665 49.6813L26.1948 41.0529C26.7287 40.519 26.7287 39.6533 26.1948 39.1193Z" fill="#454545" stroke="#454545"/>
</g>
</g>
</g>
</g>
</svg>
